<svg xmlns="http://www.w3.org/2000/svg" width="420" height="160" viewBox="0 0 420 160" role="img" lang="en"><title>An 11-year tree, 0 commits.</title><desc>A bonsai grown from the public GitHub history of fixture, drawn for 2026-07-15. Styled as seki-joju, root over rock, read from how this account works. Season: summer. Maturity level 5 of 13, in a stone pot. Every element is recomputable from public history; nothing here is random or purchasable.</desc><style>svg{--kd-bg:#101312;--kd-card:#161a18;--kd-border:#232927;--kd-trunk:#4a4440;--kd-foliage1:#3d5245;--kd-foliage2:#4d6654;--kd-foliage3:#5f7a64;--kd-blossom1:#c98a94;--kd-blossom2:#b06d79;--kd-fruit1:#c96f3a;--kd-fruit2:#e08b4e;--kd-accent:#d97742;--kd-firefly:#e8d9a0;--kd-glow:#e0a35c;--kd-snow:#dfe4e2;--kd-textPrimary:#e8e6e1;--kd-textSecondary:#9aa39d}</style><rect x="0" y="0" width="420" height="160" fill="var(--kd-bg)"/><rect x="0.5" y="0.5" width="419" height="159" fill="none" stroke="var(--kd-border)" stroke-width="1" rx="6"/><g transform="translate(6 4) scale(0.38)"><g class="kd-tree"><g class="kd-substrate"><ellipse cx="202" cy="400" rx="72" ry="8.8" fill="var(--kd-border)"/><rect x="127" y="396" width="150" height="8" rx="1.5" fill="var(--kd-trunk)" opacity="0.85"/><path d="M127 404L277 404L265 442L139 442Z" fill="var(--kd-trunk)"/><path d="M139 442L265 442L261 436L143 436Z" fill="var(--kd-bg)" opacity="0.25"/></g><g class="kd-stone"><path d="M260.93 383.96L254.24 399.47L232.06 405.6L211.27 400.94L197.84 383.59L211.36 372.89L231.01 362.61L251.36 370.56Z" fill="var(--kd-border)"/><path d="M259.09 381L241.45 405.6L216.25 405.6L232 390.02Z" fill="var(--kd-bg)" opacity="0.22"/><path d="M205 372Q225.7 366.04 250.9 402.4" fill="none" stroke="var(--kd-trunk)" stroke-width="4.97" stroke-linecap="round"/><path d="M205 367Q225.7 364.19 254.05 402.4" fill="none" stroke="var(--kd-trunk)" stroke-width="4.07" stroke-linecap="round"/><path d="M205 362Q225.7 362.35 257.2 402.4" fill="none" stroke="var(--kd-trunk)" stroke-width="3.16" stroke-linecap="round"/></g><g class="kd-branches" stroke="var(--kd-trunk)" fill="none" stroke-linecap="round" stroke-linejoin="round"><path d="M202 396Q203.43 391.55 202.34 387.01" stroke-width="22.43"/><path d="M202.34 387.01Q203.79 382.56 202.71 378.01" stroke-width="22.26"/><path d="M202.71 378.01Q204.36 373.64 203.49 369.05" stroke-width="22.09"/><path d="M203.49 369.05Q204.62 364.51 203.24 360.05" stroke-width="21.92"/><path d="M203.24 360.05Q206.15 356.4 206.74 351.76" stroke-width="21.75"/><path d="M206.74 351.76Q209.2 347.79 209.24 343.11" stroke-width="21.57"/><path d="M209.24 343.11Q211.65 339.11 211.64 334.44" stroke-width="21.4"/><path d="M211.64 334.44Q213.9 330.35 213.71 325.68" stroke-width="21.22"/><path d="M213.71 325.68Q215.99 321.6 215.82 316.93" stroke-width="21.04"/><path d="M215.82 316.93Q217.92 312.75 217.53 308.1" stroke-width="20.87"/><path d="M217.53 308.1Q219.05 303.68 218.06 299.11" stroke-width="14.75"/><path d="M217.53 308.1Q221.29 310.88 225.94 311.31" stroke-width="14.5"/><path d="M218.06 299.11Q219.11 294.56 217.64 290.12" stroke-width="14.5"/><path d="M225.94 311.31Q230.61 311.16 234.52 308.6" stroke-width="14.24"/><path d="M234.52 308.6Q239.18 308.23 242.97 305.5" stroke-width="13.97"/><path d="M242.97 305.5Q247.32 303.8 250.16 300.09" stroke-width="13.7"/><path d="M250.16 300.09Q254.08 297.55 256.12 293.34" stroke-width="13.42"/><path d="M217.64 290.12Q218.65 285.56 217.14 281.13" stroke-width="12.56"/><path d="M256.12 293.34Q260.48 291.65 263.32 287.94" stroke-width="12.56"/><path d="M217.14 281.13Q218.5 276.66 217.34 272.14" stroke-width="12.25"/><path d="M263.32 287.94Q267.64 286.17 270.42 282.42" stroke-width="12.25"/><path d="M217.34 272.14Q218.97 267.76 218.09 263.17" stroke-width="11.94"/><path d="M270.42 282.42Q274.89 281.04 277.99 277.55" stroke-width="11.94"/><path d="M277.99 277.55Q282.64 277.03 286.34 274.17" stroke-width="11.62"/><path d="M286.34 274.17Q290.92 273.27 294.37 270.11" stroke-width="11.3"/><path d="M218.09 263.17Q220.7 259.29 220.92 254.62" stroke-width="10.96"/><path d="M294.37 270.11Q298.99 269.43 302.59 266.45" stroke-width="10.96"/><path d="M220.92 254.62Q224.54 251.66 226.09 247.26" stroke-width="10.61"/><path d="M226.09 247.26Q229.93 244.59 231.82 240.32" stroke-width="9.49"/><path d="M231.82 240.32Q236.17 238.61 239.01 234.9" stroke-width="9.09"/><path d="M302.59 266.45Q307.13 265.33 310.42 262.01" stroke-width="8.66"/><path d="M239.01 234.9Q243.45 233.44 246.48 229.89" stroke-width="8.22"/><path d="M310.42 262.01Q314.72 260.19 317.45 256.39" stroke-width="8.22"/><path d="M246.48 229.89Q251.13 229.4 254.85 226.56" stroke-width="7.75"/><path d="M317.45 256.39Q320.89 253.23 322.19 248.74" stroke-width="7.75"/><path d="M322.19 248.74Q325.36 245.31 326.28 240.73" stroke-width="7.25"/><path d="M217.64 290.12Q213.04 289.32 208.68 291.02" stroke-width="6.71"/><path d="M254.85 226.56Q259.49 227.13 263.74 225.2" stroke-width="6.71"/><path d="M208.68 291.02Q205.02 288.12 200.38 287.55" stroke-width="6.13"/><path d="M263.74 225.2Q268.33 226.09 272.71 224.46" stroke-width="6.13"/><path d="M302.59 266.45Q302.81 271.12 305.43 274.99" stroke-width="6.13"/><path d="M200.38 287.55Q198.11 283.47 194.04 281.16" stroke-width="5.48"/><path d="M272.71 224.46Q277.39 224.45 281.37 222.02" stroke-width="5.48"/><path d="M305.43 274.99Q306.67 279.5 310.07 282.7" stroke-width="5.48"/><path d="M326.28 240.73Q329.45 244.15 333.95 245.44" stroke-width="5.48"/><path d="M281.37 222.02Q285.95 221.06 289.36 217.87" stroke-width="4.75"/><path d="M310.07 282.7Q312.05 286.94 315.93 289.53" stroke-width="4.75"/><path d="M333.95 245.44Q337.54 248.43 342.16 249.12" stroke-width="4.75"/><path d="M218.09 263.17Q214.31 260.42 209.66 260.03" stroke-width="3.87"/><path d="M194.04 281.16Q192.32 276.82 188.58 274" stroke-width="3.87"/><path d="M256.12 293.34Q254.66 288.9 251.11 285.87" stroke-width="3.87"/><path d="M226.09 247.26Q223.39 243.44 219.1 241.59" stroke-width="3.87"/><path d="M289.36 217.87Q293.9 216.76 297.2 213.45" stroke-width="3.87"/><path d="M315.93 289.53Q317.73 293.84 321.51 296.59" stroke-width="3.87"/><path d="M342.16 249.12Q345.75 252.11 350.37 252.8" stroke-width="3.87"/><path d="M194.04 281.16Q189.41 281.76 185.76 284.68" stroke-width="2.74"/><path d="M209.66 260.03Q206.47 256.62 201.97 255.36" stroke-width="2.74"/><path d="M188.58 274Q188.57 269.33 186.12 265.35" stroke-width="2.74"/><path d="M251.11 285.87Q253.28 281.73 252.98 277.07" stroke-width="2.74"/><path d="M219.1 241.59Q220.71 237.2 219.81 232.61" stroke-width="2.74"/><path d="M239.01 234.9Q238.1 230.31 234.95 226.86" stroke-width="2.74"/><path d="M254.85 226.56Q253.51 222.09 250.04 218.96" stroke-width="2.74"/><path d="M326.28 240.73Q328.95 236.89 329.24 232.23" stroke-width="2.74"/><path d="M297.2 213.45Q301.87 213.31 305.79 210.75" stroke-width="2.74"/><path d="M321.51 296.59Q326.05 297.71 330.51 296.31" stroke-width="2.74"/><path d="M326.28 240.73Q322.16 238.52 317.49 238.78" stroke-width="2.74"/><path d="M350.37 252.8Q353.96 255.8 358.58 256.49" stroke-width="2.74"/></g><g class="kd-foliage"><g class="kd-pad"><circle cx="180.1" cy="295.97" r="16.5" fill="var(--kd-foliage1)"/><circle cx="199.2" cy="277.49" r="14.98" fill="var(--kd-foliage2)"/><circle cx="197.41" cy="292.68" r="13.02" fill="var(--kd-foliage3)"/></g><g class="kd-pad"><circle cx="187.96" cy="273.33" r="16.68" fill="var(--kd-foliage1)"/><circle cx="186.01" cy="259.85" r="14.39" fill="var(--kd-foliage2)"/><circle cx="198" cy="263.26" r="13.3" fill="var(--kd-foliage3)"/></g><g class="kd-pad"><circle cx="212.66" cy="259.95" r="15.97" fill="var(--kd-foliage1)"/><circle cx="200.61" cy="265.23" r="12.32" fill="var(--kd-foliage2)"/><circle cx="199.95" cy="259.58" r="16.31" fill="var(--kd-foliage3)"/></g><g class="kd-pad"><circle cx="238.7" cy="275.43" r="16.24" fill="var(--kd-foliage1)"/><circle cx="267" cy="277.17" r="14.62" fill="var(--kd-foliage2)"/><circle cx="246.76" cy="280.91" r="17.69" fill="var(--kd-foliage3)"/></g><g class="kd-pad"><circle cx="228.14" cy="229.97" r="20.86" fill="var(--kd-foliage1)"/><circle cx="230.4" cy="239.72" r="21.38" fill="var(--kd-foliage2)"/><circle cx="226" cy="221.6" r="18.25" fill="var(--kd-foliage3)"/></g><g class="kd-pad"><circle cx="328.05" cy="228.84" r="16.42" fill="var(--kd-foliage1)"/><circle cx="315.2" cy="235.94" r="17.41" fill="var(--kd-foliage2)"/><circle cx="327.78" cy="229.29" r="17.55" fill="var(--kd-foliage3)"/></g><g class="kd-pad"><circle cx="325.13" cy="303.8" r="11.92" fill="var(--kd-foliage1)"/><circle cx="344.74" cy="295.69" r="14.2" fill="var(--kd-foliage2)"/><circle cx="335.44" cy="298.26" r="16.14" fill="var(--kd-foliage3)"/></g><g class="kd-pad"><circle cx="308.47" cy="211" r="16.57" fill="var(--kd-foliage1)"/><circle cx="296.11" cy="209.18" r="11.67" fill="var(--kd-foliage2)"/><circle cx="321.42" cy="211.48" r="16.32" fill="var(--kd-foliage3)"/></g><g class="kd-pad"><circle cx="355.75" cy="251.95" r="12.76" fill="var(--kd-foliage1)"/><circle cx="369.88" cy="248.77" r="11.76" fill="var(--kd-foliage2)"/><circle cx="360.74" cy="246.14" r="17.93" fill="var(--kd-foliage3)"/></g></g></g></g><g class="kd-stats"><text x="232" y="78" fill="var(--kd-textPrimary)" font-family="ui-monospace, &apos;Cascadia Code&apos;, Consolas, &apos;SF Mono&apos;, monospace" font-size="26" font-weight="700">0</text><text x="232" y="96" fill="var(--kd-textSecondary)" font-family="system-ui, -apple-system, &apos;Segoe UI&apos;, sans-serif" font-size="11">commits</text><text x="232" y="122" fill="var(--kd-textSecondary)" font-family="ui-monospace, &apos;Cascadia Code&apos;, Consolas, &apos;SF Mono&apos;, monospace" font-size="13">0 day streak</text></g></svg>