<svg xmlns="http://www.w3.org/2000/svg" width="830" height="420" viewBox="0 0 830 420" role="img" lang="en"><title>A 7-year wisteria, 8373 commits, 10 ripening pods, 7 lanterns for code reviews.</title><desc>A bonsai grown from the public GitHub history of maintainer, drawn for 2026-07-15. Drawn as a wisteria, which is a choice of the owner&apos;s. Season: summer. Maturity level 7 of 13, in a antique pot. Every element is recomputable from public history; nothing here is random or purchasable.</desc><style>svg{--kd-bg:#f2efe6;--kd-card:#e9e5d9;--kd-border:#d6d1c2;--kd-trunk:#6b5a4a;--kd-foliage1:#5c7a63;--kd-foliage2:#6a8a70;--kd-foliage3:#7f9c84;--kd-blossom1:#c98a94;--kd-blossom2:#b5707e;--kd-fruit1:#c4703c;--kd-fruit2:#d98f52;--kd-accent:#b5613a;--kd-firefly:#c9a14a;--kd-glow:#c98a3c;--kd-snow:#f7f5ee;--kd-textPrimary:#2a2c28;--kd-textSecondary:#6a6d64}@media(prefers-color-scheme:dark){svg{--kd-bg:#101312;--kd-card:#161a18;--kd-border:#232927;--kd-trunk:#4a4440;--kd-foliage1:#3d5245;--kd-foliage2:#4d6654;--kd-foliage3:#5f7a64;--kd-blossom1:#c98a94;--kd-blossom2:#b06d79;--kd-fruit1:#c96f3a;--kd-fruit2:#e08b4e;--kd-accent:#d97742;--kd-firefly:#e8d9a0;--kd-glow:#e0a35c;--kd-snow:#dfe4e2;--kd-textPrimary:#e8e6e1;--kd-textSecondary:#9aa39d}}</style><rect x="0" y="0" width="830" height="420" fill="var(--kd-bg)"/><rect x="0.5" y="0.5" width="829" height="419" fill="none" stroke="var(--kd-border)" stroke-width="1" rx="6"/><g class="kd-header"><text x="24" y="40" fill="var(--kd-textPrimary)" font-family="system-ui, -apple-system, &apos;Segoe UI&apos;, sans-serif" font-size="14" font-weight="600">kodama · @maintainer<tspan fill="var(--kd-textSecondary)" font-weight="400"> · wisteria</tspan></text><text x="806" y="40" fill="var(--kd-textSecondary)" font-family="ui-monospace, &apos;Cascadia Code&apos;, Consolas, &apos;SF Mono&apos;, monospace" font-size="12" text-anchor="end">summer · 2026-07-15</text><line x1="24" y1="56" x2="806" y2="56" stroke="var(--kd-border)" stroke-width="1"/></g><g class="kd-tree"><defs><symbol id="kd-l-fuj" viewBox="0 0 20 20" overflow="visible"><circle cx="10" cy="10" r="5.6"/><path d="M10 12.7C12.4 15.36 12.4 18.22 10 20.88C7.6 18.22 7.6 15.36 10 12.7Z" transform="rotate(180 10 16.79)"/><path d="M4.12 2.51C6.52 5.17 6.52 8.04 4.12 10.69C1.72 8.04 1.72 5.17 4.12 2.51Z" transform="rotate(300 4.12 6.6)"/><path d="M15.88 2.51C18.28 5.17 18.28 8.04 15.88 10.69C13.48 8.04 13.48 5.17 15.88 2.51Z" transform="rotate(420 15.88 6.6)"/><path d="M10 -0.88C12.4 1.78 12.4 4.64 10 7.3C7.6 4.64 7.6 1.78 10 -0.88Z" transform="rotate(360 10 3.21)"/><path d="M15.88 9.3C18.28 11.96 18.28 14.83 15.88 17.48C13.48 14.83 13.48 11.96 15.88 9.3Z" transform="rotate(480 15.88 13.39)"/><path d="M4.12 9.3C6.52 11.96 6.52 14.83 4.12 17.48C1.72 14.83 1.72 11.96 4.12 9.3Z" transform="rotate(600 4.12 13.4)"/><path d="M16.09 6.61C17.99 8.81 17.99 11.19 16.09 13.39C14.19 11.19 14.19 8.81 16.09 6.61Z" transform="rotate(90 16.09 10)"/><path d="M3.91 6.61C5.81 8.81 5.81 11.19 3.91 13.39C2.01 11.19 2.01 8.81 3.91 6.61Z" transform="rotate(270 3.91 10)"/></symbol></defs><g class="kd-substrate"><ellipse cx="202" cy="399.5" rx="66" ry="7.7" fill="var(--kd-border)"/><rect x="133" y="396" width="138" height="7" rx="1.5" fill="var(--kd-trunk)" opacity="0.85"/><path d="M133 403L271 403L259.96 438L144.04 438Z" fill="var(--kd-trunk)"/><path d="M144.04 438L259.96 438L255.96 433L148.04 433Z" fill="var(--kd-bg)" opacity="0.25"/></g><g class="kd-branches" stroke="var(--kd-trunk)" fill="none" stroke-linecap="round" stroke-linejoin="round"><path d="M202 396Q202.61 391.37 200.72 387.09" stroke-width="19.53"/><path d="M200.72 387.09Q201.6 382.5 199.97 378.12" stroke-width="19.42"/><path d="M199.97 378.12Q200.83 373.53 199.18 369.16" stroke-width="19.31"/><path d="M199.18 369.16Q200.22 364.6 198.73 360.17" stroke-width="19.2"/><path d="M198.73 360.17Q199.43 355.55 197.63 351.24" stroke-width="19.09"/><path d="M197.63 351.24Q198.62 346.67 197.09 342.25" stroke-width="18.98"/><path d="M197.09 342.25Q197.74 337.62 195.88 333.33" stroke-width="18.87"/><path d="M195.88 333.33Q196.5 328.7 194.62 324.42" stroke-width="18.76"/><path d="M194.62 324.42Q195.7 319.87 194.25 315.43" stroke-width="18.64"/><path d="M194.25 315.43Q196.66 311.42 196.63 306.75" stroke-width="18.53"/><path d="M196.63 306.75Q199.3 302.92 199.6 298.25" stroke-width="18.42"/><path d="M199.6 298.25Q202.54 294.62 203.17 289.99" stroke-width="18.3"/><path d="M203.17 289.99Q205.96 286.25 206.4 281.59" stroke-width="18.18"/><path d="M206.4 281.59Q209.22 277.87 209.7 273.22" stroke-width="18.07"/><path d="M209.7 273.22Q212.77 269.69 213.56 265.09" stroke-width="17.95"/><path d="M213.56 265.09Q216.95 261.88 218.19 257.37" stroke-width="16.21"/><path d="M218.19 257.37Q221.85 254.47 223.47 250.08" stroke-width="16.08"/><path d="M223.47 250.08Q227.85 248.46 230.75 244.79" stroke-width="13.66"/><path d="M230.75 244.79Q235.4 244.35 239.15 241.56" stroke-width="13.5"/><path d="M239.15 241.56Q243.73 242.46 248.12 240.85" stroke-width="10.5"/><path d="M248.12 240.85Q252.35 242.84 256.99 242.35" stroke-width="10.29"/><path d="M256.99 242.35Q261.12 244.56 265.78 244.3" stroke-width="9.87"/><path d="M265.78 244.3Q270.38 245.1 274.74 243.4" stroke-width="9.66"/><path d="M274.74 243.4Q279.37 244.04 283.65 242.18" stroke-width="9.21"/><path d="M283.65 242.18Q288.33 242.09 292.27 239.57" stroke-width="8.97"/><path d="M292.27 239.57Q296.87 238.76 300.38 235.68" stroke-width="8.74"/><path d="M223.47 250.08Q222.2 245.59 218.77 242.41" stroke-width="8.24"/><path d="M239.15 241.56Q240.95 237.24 240.24 232.62" stroke-width="8.24"/><path d="M300.38 235.68Q304.87 234.37 308.02 230.92" stroke-width="8.24"/><path d="M218.77 242.41Q217.9 237.82 214.78 234.34" stroke-width="7.97"/><path d="M240.24 232.62Q242.26 228.41 241.8 223.76" stroke-width="7.97"/><path d="M214.78 234.34Q215.57 229.74 213.86 225.39" stroke-width="7.7"/><path d="M241.8 223.76Q244.7 220.09 245.27 215.46" stroke-width="7.7"/><path d="M213.56 265.09Q209.85 262.24 205.21 261.73" stroke-width="7.42"/><path d="M213.86 225.39Q214.77 220.81 213.17 216.42" stroke-width="7.42"/><path d="M245.27 215.46Q248.44 212.02 249.36 207.44" stroke-width="7.42"/><path d="M205.21 261.73Q203.24 257.49 199.36 254.89" stroke-width="7.13"/><path d="M213.17 216.42Q214.13 211.84 212.58 207.44" stroke-width="7.13"/><path d="M249.36 207.44Q252.7 204.17 253.86 199.65" stroke-width="7.13"/><path d="M308.02 230.92Q312.14 228.71 314.52 224.69" stroke-width="7.13"/><path d="M199.36 254.89Q198.06 250.4 194.62 247.24" stroke-width="6.83"/><path d="M212.58 207.44Q214.06 203 213.02 198.45" stroke-width="6.83"/><path d="M253.86 199.65Q257.47 196.68 259.02 192.27" stroke-width="6.83"/><path d="M194.62 247.24Q192.92 242.89 189.21 240.04" stroke-width="6.51"/><path d="M189.21 240.04Q187.47 235.71 183.73 232.91" stroke-width="6.18"/><path d="M213.02 198.45Q214.36 193.97 213.19 189.45" stroke-width="6.18"/><path d="M314.52 224.69Q318.76 222.73 321.37 218.86" stroke-width="6.18"/><path d="M183.73 232.91Q182.09 228.53 178.42 225.64" stroke-width="5.82"/><path d="M213.19 189.45Q215.54 185.41 215.45 180.74" stroke-width="5.82"/><path d="M321.37 218.86Q325.57 216.81 328.09 212.88" stroke-width="5.82"/><path d="M178.42 225.64Q177.14 221.14 173.72 217.97" stroke-width="5.45"/><path d="M259.02 192.27Q262.6 189.27 264.1 184.84" stroke-width="5.45"/><path d="M328.09 212.88Q330.67 208.97 330.84 204.3" stroke-width="5.45"/><path d="M215.45 180.74Q219.25 178.01 221.08 173.71" stroke-width="5.04"/><path d="M264.1 184.84Q267.67 181.82 269.14 177.39" stroke-width="5.04"/><path d="M173.72 217.97Q173.75 213.29 171.36 209.28" stroke-width="4.12"/><path d="M269.14 177.39Q273 174.75 274.94 170.5" stroke-width="4.12"/><path d="M330.84 204.3Q332.45 199.92 331.56 195.33" stroke-width="4.12"/><path d="M171.36 209.28Q173.46 205.11 173.09 200.45" stroke-width="3.57"/><path d="M221.08 173.71Q223.11 169.51 222.66 164.85" stroke-width="3.57"/><path d="M308.02 230.92Q306.19 226.62 302.39 223.9" stroke-width="3.57"/><path d="M274.94 170.5Q279.19 168.57 281.83 164.72" stroke-width="3.57"/><path d="M331.56 195.33Q332.81 190.83 331.55 186.33" stroke-width="3.57"/><path d="M173.09 200.45Q174.73 196.07 173.86 191.48" stroke-width="2.91"/><path d="M221.08 173.71Q225.51 175.21 230.07 174.18" stroke-width="2.91"/><path d="M314.52 224.69Q317.14 228.55 321.4 230.49" stroke-width="2.91"/><path d="M302.39 223.9Q303.46 219.35 302.01 214.9" stroke-width="2.91"/><path d="M281.83 164.72Q286.28 163.28 289.34 159.75" stroke-width="2.91"/><path d="M330.84 204.3Q335.35 205.52 339.84 204.22" stroke-width="2.91"/><path d="M256.99 242.35Q254.27 246.15 253.91 250.8" stroke-width="2.06"/><path d="M173.72 217.97Q169.78 220.48 167.72 224.67" stroke-width="2.06"/><path d="M274.74 243.4Q274.16 248.04 276.08 252.3" stroke-width="2.06"/><path d="M173.72 217.97Q178.32 217.15 181.83 214.07" stroke-width="2.06"/><path d="M213.02 198.45Q208.93 196.19 204.26 196.38" stroke-width="2.06"/><path d="M173.86 191.48Q176.94 187.97 177.75 183.36" stroke-width="2.06"/><path d="M259.02 192.27Q262.37 189.01 263.54 184.49" stroke-width="2.06"/><path d="M215.45 180.74Q218.83 183.97 223.39 184.98" stroke-width="2.06"/><path d="M300.38 235.68Q300.6 240.34 303.22 244.22" stroke-width="2.06"/><path d="M259.02 192.27Q262.37 189.01 263.54 184.49" stroke-width="2.06"/><path d="M222.66 164.85Q220.45 160.74 216.42 158.36" stroke-width="2.06"/><path d="M259.02 192.27Q262.46 195.43 267.05 196.34" stroke-width="2.06"/><path d="M269.14 177.39Q266.64 173.44 262.45 171.37" stroke-width="2.06"/><path d="M222.66 164.85Q227.11 163.45 230.2 159.94" stroke-width="2.06"/><path d="M230.07 174.18Q233.31 177.55 237.83 178.74" stroke-width="2.06"/><path d="M321.4 230.49Q324.56 233.93 329.05 235.22" stroke-width="2.06"/><path d="M302.01 214.9Q302.38 210.24 300.27 206.07" stroke-width="2.06"/><path d="M289.34 159.75Q290.78 155.3 289.71 150.76" stroke-width="2.06"/><path d="M339.84 204.22Q344.35 205.44 348.84 204.13" stroke-width="2.06"/><path d="M331.55 186.33Q332.44 181.75 330.83 177.36" stroke-width="2.06"/><path d="M331.55 186.33Q336.21 186.09 340.08 183.46" stroke-width="2.06"/></g><g class="kd-foliage"><g class="kd-pad"><use href="#kd-l-fuj" x="151.34" y="223.62" width="28.07" height="28.07" fill="var(--kd-foliage1)"/><use href="#kd-l-fuj" x="162.29" y="212.85" width="25.8" height="25.8" fill="var(--kd-foliage2)"/><use href="#kd-l-fuj" x="141.95" y="218.15" width="30.24" height="30.24" fill="var(--kd-foliage3)"/><use href="#kd-l-fuj" x="152.44" y="210.65" width="29.83" height="29.83" fill="var(--kd-foliage1)"/><use href="#kd-l-fuj" x="135.49" y="210.62" width="38.21" height="38.21" fill="var(--kd-foliage2)"/></g><g class="kd-pad"><use href="#kd-l-fuj" x="254.5" y="240.82" width="36.77" height="36.77" fill="var(--kd-foliage1)"/><use href="#kd-l-fuj" x="264.12" y="240.02" width="33.74" height="33.74" fill="var(--kd-foliage2)"/><use href="#kd-l-fuj" x="242.38" y="228.26" width="39.35" height="39.35" fill="var(--kd-foliage3)"/><use href="#kd-l-fuj" x="260.06" y="232.1" width="35.9" height="35.9" fill="var(--kd-foliage1)"/><use href="#kd-l-fuj" x="253.04" y="247.05" width="33" height="33" fill="var(--kd-foliage2)"/></g><g class="kd-pad"><use href="#kd-l-fuj" x="161.46" y="164.01" width="28.29" height="28.29" fill="var(--kd-foliage1)"/><use href="#kd-l-fuj" x="150.66" y="176.5" width="35.91" height="35.91" fill="var(--kd-foliage2)"/><use href="#kd-l-fuj" x="149.6" y="169.75" width="39.22" height="39.22" fill="var(--kd-foliage3)"/><use href="#kd-l-fuj" x="165.59" y="175.05" width="33.09" height="33.09" fill="var(--kd-foliage1)"/><use href="#kd-l-fuj" x="178.87" y="167.12" width="26.47" height="26.47" fill="var(--kd-foliage2)"/></g><g class="kd-pad"><use href="#kd-l-fuj" x="213.47" y="139.43" width="31.32" height="31.32" fill="var(--kd-foliage1)"/><use href="#kd-l-fuj" x="195.5" y="129.32" width="35.1" height="35.1" fill="var(--kd-foliage2)"/><use href="#kd-l-fuj" x="203.37" y="141.18" width="34.34" height="34.34" fill="var(--kd-foliage3)"/><use href="#kd-l-fuj" x="183.55" y="132.79" width="39.01" height="39.01" fill="var(--kd-foliage1)"/><use href="#kd-l-fuj" x="202.02" y="132.69" width="28.63" height="28.63" fill="var(--kd-foliage2)"/></g><g class="kd-pad"><use href="#kd-l-fuj" x="220.47" y="162.73" width="33.07" height="33.07" fill="var(--kd-foliage1)"/><use href="#kd-l-fuj" x="230.68" y="160.59" width="36.67" height="36.67" fill="var(--kd-foliage2)"/><use href="#kd-l-fuj" x="225.76" y="156.72" width="34.02" height="34.02" fill="var(--kd-foliage3)"/><use href="#kd-l-fuj" x="230.89" y="172.74" width="31.34" height="31.34" fill="var(--kd-foliage1)"/><use href="#kd-l-fuj" x="206.72" y="153.64" width="38.57" height="38.57" fill="var(--kd-foliage2)"/></g><g class="kd-pad"><use href="#kd-l-fuj" x="249.18" y="169" width="40.11" height="40.11" fill="var(--kd-foliage1)"/><use href="#kd-l-fuj" x="228.39" y="182.8" width="34.25" height="34.25" fill="var(--kd-foliage2)"/><use href="#kd-l-fuj" x="226.52" y="177.38" width="45.75" height="45.75" fill="var(--kd-foliage3)"/><use href="#kd-l-fuj" x="238.84" y="185.83" width="50.03" height="50.03" fill="var(--kd-foliage1)"/><use href="#kd-l-fuj" x="254.54" y="165.02" width="39.5" height="39.5" fill="var(--kd-foliage2)"/></g><g class="kd-pad"><use href="#kd-l-fuj" x="278.4" y="184.39" width="28.98" height="28.98" fill="var(--kd-foliage1)"/><use href="#kd-l-fuj" x="288.83" y="193.86" width="30.27" height="30.27" fill="var(--kd-foliage2)"/><use href="#kd-l-fuj" x="274.79" y="189.18" width="28.05" height="28.05" fill="var(--kd-foliage3)"/><use href="#kd-l-fuj" x="287.47" y="183.12" width="27.8" height="27.8" fill="var(--kd-foliage1)"/><use href="#kd-l-fuj" x="295.37" y="187.07" width="24.57" height="24.57" fill="var(--kd-foliage2)"/></g><g class="kd-pad"><use href="#kd-l-fuj" x="298.17" y="208.65" width="38.96" height="38.96" fill="var(--kd-foliage1)"/><use href="#kd-l-fuj" x="309.9" y="216.87" width="36.84" height="36.84" fill="var(--kd-foliage2)"/><use href="#kd-l-fuj" x="325.07" y="218.66" width="37.9" height="37.9" fill="var(--kd-foliage3)"/><use href="#kd-l-fuj" x="297.97" y="222.48" width="27.52" height="27.52" fill="var(--kd-foliage1)"/><use href="#kd-l-fuj" x="314.71" y="222.69" width="27.46" height="27.46" fill="var(--kd-foliage2)"/></g><g class="kd-pad"><use href="#kd-l-fuj" x="280.91" y="143.48" width="22.85" height="22.85" fill="var(--kd-foliage1)"/><use href="#kd-l-fuj" x="291.31" y="145.03" width="22.55" height="22.55" fill="var(--kd-foliage2)"/><use href="#kd-l-fuj" x="290.82" y="139.36" width="25.58" height="25.58" fill="var(--kd-foliage3)"/><use href="#kd-l-fuj" x="268.64" y="128.31" width="27.77" height="27.77" fill="var(--kd-foliage1)"/><use href="#kd-l-fuj" x="283.09" y="140.04" width="22.3" height="22.3" fill="var(--kd-foliage2)"/></g><g class="kd-pad"><use href="#kd-l-fuj" x="339.54" y="186.89" width="28.74" height="28.74" fill="var(--kd-foliage1)"/><use href="#kd-l-fuj" x="347.43" y="196.95" width="24.48" height="24.48" fill="var(--kd-foliage2)"/><use href="#kd-l-fuj" x="336.07" y="197.21" width="23.85" height="23.85" fill="var(--kd-foliage3)"/><use href="#kd-l-fuj" x="319.35" y="191.25" width="30.95" height="30.95" fill="var(--kd-foliage1)"/><use href="#kd-l-fuj" x="325.47" y="192.02" width="33.44" height="33.44" fill="var(--kd-foliage2)"/></g><g class="kd-pad"><use href="#kd-l-fuj" x="326.39" y="163.06" width="36.42" height="36.42" fill="var(--kd-foliage1)"/><use href="#kd-l-fuj" x="300.24" y="162.56" width="28.11" height="28.11" fill="var(--kd-foliage2)"/><use href="#kd-l-fuj" x="304.31" y="165.69" width="29.29" height="29.29" fill="var(--kd-foliage3)"/><use href="#kd-l-fuj" x="316.21" y="151.95" width="33.84" height="33.84" fill="var(--kd-foliage1)"/><use href="#kd-l-fuj" x="315.45" y="145.06" width="39.21" height="39.21" fill="var(--kd-foliage2)"/></g></g><g class="kd-ornaments"><g class="kd-lanterns"><g class="kd-lantern"><line x1="273.17" y1="268.72" x2="273.17" y2="274.72" stroke="var(--kd-trunk)" stroke-width="0.9" opacity="0.8"/><rect x="270.42" y="274.72" width="5.5" height="7.5" rx="2" fill="var(--kd-accent)"/><rect x="269.62" y="277.87" width="7.1" height="1" fill="var(--kd-trunk)" opacity="0.55"/></g><g class="kd-lantern"><line x1="345.48" y1="244.8" x2="345.48" y2="250.8" stroke="var(--kd-trunk)" stroke-width="0.9" opacity="0.8"/><rect x="342.73" y="250.8" width="5.5" height="7.5" rx="2" fill="var(--kd-accent)"/><rect x="341.93" y="253.95" width="7.1" height="1" fill="var(--kd-trunk)" opacity="0.55"/></g><g class="kd-lantern"><line x1="164.92" y1="241.11" x2="164.92" y2="247.11" stroke="var(--kd-trunk)" stroke-width="0.9" opacity="0.8"/><rect x="162.17" y="247.11" width="5.5" height="7.5" rx="2" fill="var(--kd-accent)"/><rect x="161.37" y="250.26" width="7.1" height="1" fill="var(--kd-trunk)" opacity="0.55"/></g><g class="kd-lantern"><line x1="317.18" y1="210.05" x2="317.18" y2="216.05" stroke="var(--kd-trunk)" stroke-width="0.9" opacity="0.8"/><rect x="314.43" y="216.05" width="5.5" height="7.5" rx="2" fill="var(--kd-accent)"/><rect x="313.63" y="219.2" width="7.1" height="1" fill="var(--kd-trunk)" opacity="0.55"/></g><g class="kd-lantern"><line x1="351.01" y1="218.14" x2="351.01" y2="224.14" stroke="var(--kd-trunk)" stroke-width="0.9" opacity="0.8"/><rect x="348.26" y="224.14" width="5.5" height="7.5" rx="2" fill="var(--kd-accent)"/><rect x="347.46" y="227.29" width="7.1" height="1" fill="var(--kd-trunk)" opacity="0.55"/></g><g class="kd-lantern"><line x1="283.37" y1="212.94" x2="283.37" y2="218.94" stroke="var(--kd-trunk)" stroke-width="0.9" opacity="0.8"/><rect x="280.62" y="218.94" width="5.5" height="7.5" rx="2" fill="var(--kd-accent)"/><rect x="279.82" y="222.09" width="7.1" height="1" fill="var(--kd-trunk)" opacity="0.55"/></g><g class="kd-lantern"><line x1="174.23" y1="199.7" x2="174.23" y2="205.7" stroke="var(--kd-trunk)" stroke-width="0.9" opacity="0.8"/><rect x="171.48" y="205.7" width="5.5" height="7.5" rx="2" fill="var(--kd-accent)"/><rect x="170.68" y="208.85" width="7.1" height="1" fill="var(--kd-trunk)" opacity="0.55"/></g></g><g class="kd-unripe"><circle cx="346.87" cy="247.06" r="3" fill="var(--kd-foliage3)" opacity="0.9"/><circle cx="180.64" cy="241.33" r="3" fill="var(--kd-foliage3)" opacity="0.9"/><circle cx="313.17" cy="219.44" r="3" fill="var(--kd-foliage3)" opacity="0.9"/><circle cx="363.25" cy="215.97" r="3" fill="var(--kd-foliage3)" opacity="0.9"/></g><g class="kd-fruits"><g class="kd-fruit"><line x1="261.14" y1="262.96" x2="261.14" y2="264.76" stroke="var(--kd-trunk)" stroke-width="1" stroke-linecap="round" opacity="0.7"/><ellipse cx="261.14" cy="268.96" rx="2.28" ry="6.9" fill="var(--kd-fruit2)"/><g opacity="1"><ellipse cx="261.14" cy="268.96" rx="2.28" ry="6.9" fill="var(--kd-foliage3)"/></g></g><g class="kd-fruit"><line x1="345.06" y1="244.06" x2="345.06" y2="246.46" stroke="var(--kd-trunk)" stroke-width="1" stroke-linecap="round" opacity="0.7"/><ellipse cx="345.06" cy="252.06" rx="3.04" ry="9.2" fill="var(--kd-fruit2)"/><g opacity="0.33"><ellipse cx="345.06" cy="252.06" rx="3.04" ry="9.2" fill="var(--kd-foliage3)"/></g></g><g class="kd-fruit"><line x1="165.14" y1="241.53" x2="165.14" y2="242.73" stroke="var(--kd-trunk)" stroke-width="1" stroke-linecap="round" opacity="0.7"/><ellipse cx="165.14" cy="245.53" rx="1.52" ry="4.6" fill="var(--kd-fruit2)"/></g><g class="kd-fruit"><line x1="287.36" y1="215.04" x2="287.36" y2="216.84" stroke="var(--kd-trunk)" stroke-width="1" stroke-linecap="round" opacity="0.7"/><ellipse cx="287.36" cy="221.04" rx="2.28" ry="6.9" fill="var(--kd-fruit2)"/></g><g class="kd-fruit"><line x1="338.77" y1="214.36" x2="338.77" y2="216.76" stroke="var(--kd-trunk)" stroke-width="1" stroke-linecap="round" opacity="0.7"/><ellipse cx="338.77" cy="222.36" rx="3.04" ry="9.2" fill="var(--kd-fruit2)"/></g><g class="kd-fruit"><line x1="266.4" y1="218.29" x2="266.4" y2="219.49" stroke="var(--kd-trunk)" stroke-width="1" stroke-linecap="round" opacity="0.7"/><ellipse cx="266.4" cy="222.29" rx="1.52" ry="4.6" fill="var(--kd-fruit2)"/></g><g class="kd-fruit"><line x1="159.35" y1="189.94" x2="159.35" y2="191.74" stroke="var(--kd-trunk)" stroke-width="1" stroke-linecap="round" opacity="0.7"/><ellipse cx="159.35" cy="195.94" rx="2.28" ry="6.9" fill="var(--kd-fruit2)"/></g><g class="kd-fruit"><line x1="257.24" y1="182.63" x2="257.24" y2="185.03" stroke="var(--kd-trunk)" stroke-width="1" stroke-linecap="round" opacity="0.7"/><ellipse cx="257.24" cy="190.63" rx="3.04" ry="9.2" fill="var(--kd-fruit2)"/></g><g class="kd-fruit"><line x1="331.49" y1="194.35" x2="331.49" y2="195.55" stroke="var(--kd-trunk)" stroke-width="1" stroke-linecap="round" opacity="0.7"/><ellipse cx="331.49" cy="198.35" rx="1.52" ry="4.6" fill="var(--kd-fruit2)"/></g><g class="kd-fruit"><line x1="214.42" y1="174.48" x2="214.42" y2="176.28" stroke="var(--kd-trunk)" stroke-width="1" stroke-linecap="round" opacity="0.7"/><ellipse cx="214.42" cy="180.48" rx="2.28" ry="6.9" fill="var(--kd-fruit2)"/></g></g><g class="kd-shoots"><circle cx="306.33" cy="145.47" r="2.6" fill="var(--kd-foliage3)"/><circle cx="306.33" cy="145.47" r="1.3" fill="var(--kd-accent)" opacity="0.75"/><circle cx="195.44" cy="158.92" r="2.6" fill="var(--kd-foliage3)"/><circle cx="195.44" cy="158.92" r="1.3" fill="var(--kd-accent)" opacity="0.75"/></g></g><g class="kd-inhabitants"><g class="kd-butterflies"><g class="kd-butterfly"><ellipse cx="395.99" cy="344.18" rx="3.5" ry="2" fill="var(--kd-blossom1)" transform="rotate(-38 395.99 344.18)"/><ellipse cx="399.99" cy="344.18" rx="3.5" ry="2" fill="var(--kd-blossom1)" transform="rotate(38 399.99 344.18)"/><ellipse cx="397.99" cy="344.18" rx="0.6" ry="2.4" fill="var(--kd-trunk)" opacity="0.9"/></g><g class="kd-butterfly"><ellipse cx="335.21" cy="181.06" rx="3.5" ry="2" fill="var(--kd-blossom1)" transform="rotate(-38 335.21 181.06)"/><ellipse cx="339.21" cy="181.06" rx="3.5" ry="2" fill="var(--kd-blossom1)" transform="rotate(38 339.21 181.06)"/><ellipse cx="337.21" cy="181.06" rx="0.6" ry="2.4" fill="var(--kd-trunk)" opacity="0.9"/></g><g class="kd-butterfly"><ellipse cx="386.23" cy="207.74" rx="3.5" ry="2" fill="var(--kd-blossom1)" transform="rotate(-38 386.23 207.74)"/><ellipse cx="390.23" cy="207.74" rx="3.5" ry="2" fill="var(--kd-blossom1)" transform="rotate(38 390.23 207.74)"/><ellipse cx="388.23" cy="207.74" rx="0.6" ry="2.4" fill="var(--kd-trunk)" opacity="0.9"/></g><g class="kd-butterfly"><ellipse cx="314.19" cy="349.31" rx="3.5" ry="2" fill="var(--kd-blossom1)" transform="rotate(-38 314.19 349.31)"/><ellipse cx="318.19" cy="349.31" rx="3.5" ry="2" fill="var(--kd-blossom1)" transform="rotate(38 318.19 349.31)"/><ellipse cx="316.19" cy="349.31" rx="0.6" ry="2.4" fill="var(--kd-trunk)" opacity="0.9"/></g><g class="kd-butterfly"><ellipse cx="175.95" cy="151.56" rx="3.5" ry="2" fill="var(--kd-blossom1)" transform="rotate(-38 175.95 151.56)"/><ellipse cx="179.95" cy="151.56" rx="3.5" ry="2" fill="var(--kd-blossom1)" transform="rotate(38 179.95 151.56)"/><ellipse cx="177.95" cy="151.56" rx="0.6" ry="2.4" fill="var(--kd-trunk)" opacity="0.9"/></g><g class="kd-butterfly"><ellipse cx="122.79" cy="307.05" rx="3.5" ry="2" fill="var(--kd-blossom1)" transform="rotate(-38 122.79 307.05)"/><ellipse cx="126.79" cy="307.05" rx="3.5" ry="2" fill="var(--kd-blossom1)" transform="rotate(38 126.79 307.05)"/><ellipse cx="124.79" cy="307.05" rx="0.6" ry="2.4" fill="var(--kd-trunk)" opacity="0.9"/></g><g class="kd-butterfly"><ellipse cx="312.38" cy="359.77" rx="3.5" ry="2" fill="var(--kd-blossom1)" transform="rotate(-38 312.38 359.77)"/><ellipse cx="316.38" cy="359.77" rx="3.5" ry="2" fill="var(--kd-blossom1)" transform="rotate(38 316.38 359.77)"/><ellipse cx="314.38" cy="359.77" rx="0.6" ry="2.4" fill="var(--kd-trunk)" opacity="0.9"/></g><g class="kd-butterfly"><ellipse cx="410.97" cy="323.87" rx="3.5" ry="2" fill="var(--kd-blossom1)" transform="rotate(-38 410.97 323.87)"/><ellipse cx="414.97" cy="323.87" rx="3.5" ry="2" fill="var(--kd-blossom1)" transform="rotate(38 414.97 323.87)"/><ellipse cx="412.97" cy="323.87" rx="0.6" ry="2.4" fill="var(--kd-trunk)" opacity="0.9"/></g><g class="kd-butterfly"><ellipse cx="402.2" cy="209.78" rx="3.5" ry="2" fill="var(--kd-blossom1)" transform="rotate(-38 402.2 209.78)"/><ellipse cx="406.2" cy="209.78" rx="3.5" ry="2" fill="var(--kd-blossom1)" transform="rotate(38 406.2 209.78)"/><ellipse cx="404.2" cy="209.78" rx="0.6" ry="2.4" fill="var(--kd-trunk)" opacity="0.9"/></g><g class="kd-butterfly"><ellipse cx="192.02" cy="152.1" rx="3.5" ry="2" fill="var(--kd-blossom1)" transform="rotate(-38 192.02 152.1)"/><ellipse cx="196.02" cy="152.1" rx="3.5" ry="2" fill="var(--kd-blossom1)" transform="rotate(38 196.02 152.1)"/><ellipse cx="194.02" cy="152.1" rx="0.6" ry="2.4" fill="var(--kd-trunk)" opacity="0.9"/></g><g class="kd-butterfly"><ellipse cx="77.3" cy="250.37" rx="3.5" ry="2" fill="var(--kd-blossom1)" transform="rotate(-38 77.3 250.37)"/><ellipse cx="81.3" cy="250.37" rx="3.5" ry="2" fill="var(--kd-blossom1)" transform="rotate(38 81.3 250.37)"/><ellipse cx="79.3" cy="250.37" rx="0.6" ry="2.4" fill="var(--kd-trunk)" opacity="0.9"/></g></g><g class="kd-chime"><line x1="167.72" y1="226.67" x2="167.72" y2="233.67" stroke="var(--kd-trunk)" stroke-width="0.9" opacity="0.8"/><path d="M163.72 239.67Q167.72 232.17 171.72 239.67Z" fill="var(--kd-textSecondary)"/><line x1="167.72" y1="239.67" x2="167.72" y2="245.67" stroke="var(--kd-trunk)" stroke-width="0.8" opacity="0.7"/><rect x="165.72" y="245.67" width="4" height="6" rx="0.8" fill="var(--kd-blossom1)" opacity="0.85"/></g><g class="kd-bird kd-bird-nesting"><path d="M340.84 201.13Q348.84 208.13 356.84 201.13Z" fill="var(--kd-trunk)"/><ellipse cx="348.84" cy="198.13" rx="4.6" ry="3.2" fill="var(--kd-textSecondary)"/><circle cx="352.44" cy="194.73" r="2.4" fill="var(--kd-textSecondary)"/><path d="M354.44 194.73L357.24 195.53L354.44 196.33Z" fill="var(--kd-accent)"/><path d="M344.84 197.73L339.34 195.53L344.84 199.73Z" fill="var(--kd-textSecondary)"/></g></g></g><g class="kd-stats"><text x="500" y="110" fill="var(--kd-textPrimary)" font-family="ui-monospace, &apos;Cascadia Code&apos;, Consolas, &apos;SF Mono&apos;, monospace" font-size="34" font-weight="700">8 373</text><text x="500" y="129" fill="var(--kd-textSecondary)" font-family="system-ui, -apple-system, &apos;Segoe UI&apos;, sans-serif" font-size="13">commits</text><text x="500" y="168" fill="var(--kd-textPrimary)" font-family="ui-monospace, &apos;Cascadia Code&apos;, Consolas, &apos;SF Mono&apos;, monospace" font-size="20" font-weight="600">1 day streak</text><text x="500" y="198" fill="var(--kd-textPrimary)" font-family="ui-monospace, &apos;Cascadia Code&apos;, Consolas, &apos;SF Mono&apos;, monospace" font-size="20" font-weight="600">3 this week</text><circle cx="504" cy="244" r="4" fill="var(--kd-foliage2)"/><text x="516" y="248" fill="var(--kd-textSecondary)" font-family="system-ui, -apple-system, &apos;Segoe UI&apos;, sans-serif" font-size="12">foliage: commits over time</text><circle cx="504" cy="264" r="4" fill="var(--kd-fruit2)"/><text x="516" y="268" fill="var(--kd-textSecondary)" font-family="system-ui, -apple-system, &apos;Segoe UI&apos;, sans-serif" font-size="12">fruit: merged pull requests</text><circle cx="504" cy="284" r="4" fill="var(--kd-accent)"/><text x="516" y="288" fill="var(--kd-textSecondary)" font-family="system-ui, -apple-system, &apos;Segoe UI&apos;, sans-serif" font-size="12">lanterns: code reviews</text><circle cx="504" cy="304" r="4" fill="var(--kd-foliage3)"/><text x="516" y="308" fill="var(--kd-textSecondary)" font-family="system-ui, -apple-system, &apos;Segoe UI&apos;, sans-serif" font-size="12">shoots: commits this week</text><circle cx="504" cy="324" r="4" fill="var(--kd-foliage3)"/><text x="516" y="328" fill="var(--kd-textSecondary)" font-family="system-ui, -apple-system, &apos;Segoe UI&apos;, sans-serif" font-size="12">green fruit: open pull requests</text><circle cx="504" cy="344" r="4" fill="var(--kd-textSecondary)"/><text x="516" y="348" fill="var(--kd-textSecondary)" font-family="system-ui, -apple-system, &apos;Segoe UI&apos;, sans-serif" font-size="12">bird: issues closed</text><circle cx="504" cy="364" r="4" fill="var(--kd-blossom1)"/><text x="516" y="368" fill="var(--kd-textSecondary)" font-family="system-ui, -apple-system, &apos;Segoe UI&apos;, sans-serif" font-size="12">butterflies: stars received</text><circle cx="504" cy="384" r="4" fill="var(--kd-textSecondary)"/><text x="516" y="388" fill="var(--kd-textSecondary)" font-family="system-ui, -apple-system, &apos;Segoe UI&apos;, sans-serif" font-size="12">wind chime: discussions</text></g></svg>