<svg xmlns="http://www.w3.org/2000/svg" width="830" height="420" viewBox="0 0 830 420" role="img" lang="en"><title>A 8-year tree, 0 commits.</title><desc>A bonsai grown from the public GitHub history of fixture, drawn for 2026-07-15. Styled as sokan, a twin trunk, read from how this account works. Season: summer. Maturity level 5 of 13, in a antique pot. Every element is recomputable from public history; nothing here is random or purchasable.</desc><style>svg{--kd-bg:#f2efe6;--kd-card:#e9e5d9;--kd-border:#d6d1c2;--kd-trunk:#6b5a4a;--kd-foliage1:#5c7a63;--kd-foliage2:#6a8a70;--kd-foliage3:#7f9c84;--kd-blossom1:#c98a94;--kd-blossom2:#b5707e;--kd-fruit1:#c4703c;--kd-fruit2:#d98f52;--kd-accent:#b5613a;--kd-firefly:#c9a14a;--kd-glow:#c98a3c;--kd-snow:#f7f5ee;--kd-textPrimary:#2a2c28;--kd-textSecondary:#6a6d64}@media(prefers-color-scheme:dark){svg{--kd-bg:#101312;--kd-card:#161a18;--kd-border:#232927;--kd-trunk:#4a4440;--kd-foliage1:#3d5245;--kd-foliage2:#4d6654;--kd-foliage3:#5f7a64;--kd-blossom1:#c98a94;--kd-blossom2:#b06d79;--kd-fruit1:#c96f3a;--kd-fruit2:#e08b4e;--kd-accent:#d97742;--kd-firefly:#e8d9a0;--kd-glow:#e0a35c;--kd-snow:#dfe4e2;--kd-textPrimary:#e8e6e1;--kd-textSecondary:#9aa39d}}</style><rect x="0" y="0" width="830" height="420" fill="var(--kd-bg)"/><rect x="0.5" y="0.5" width="829" height="419" fill="none" stroke="var(--kd-border)" stroke-width="1" rx="6"/><g class="kd-header"><text x="24" y="40" fill="var(--kd-textPrimary)" font-family="system-ui, -apple-system, &apos;Segoe UI&apos;, sans-serif" font-size="14" font-weight="600">kodama · @fixture</text><text x="806" y="40" fill="var(--kd-textSecondary)" font-family="ui-monospace, &apos;Cascadia Code&apos;, Consolas, &apos;SF Mono&apos;, monospace" font-size="12" text-anchor="end">summer · 2026-07-15</text><line x1="24" y1="56" x2="806" y2="56" stroke="var(--kd-border)" stroke-width="1"/></g><g class="kd-tree"><g class="kd-substrate"><ellipse cx="202" cy="399.5" rx="66" ry="7.7" fill="var(--kd-border)"/><rect x="133" y="396" width="138" height="7" rx="1.5" fill="var(--kd-trunk)" opacity="0.85"/><path d="M133 403L271 403L259.96 438L144.04 438Z" fill="var(--kd-trunk)"/><path d="M144.04 438L259.96 438L255.96 433L148.04 433Z" fill="var(--kd-bg)" opacity="0.25"/></g><g class="kd-branches" stroke="var(--kd-trunk)" fill="none" stroke-linecap="round" stroke-linejoin="round"><path d="M248 396Q250.82 392.27 251.3 387.63" stroke-width="20"/><path d="M251.3 387.63Q254.13 383.91 254.62 379.26" stroke-width="19.54"/><path d="M254.62 379.26Q257.79 375.83 258.71 371.24" stroke-width="19.07"/><path d="M202 396Q203.43 391.55 202.34 387.01" stroke-width="18.58"/><path d="M258.71 371.24Q261.52 367.51 261.98 362.86" stroke-width="18.58"/><path d="M202.34 387.01Q203.79 382.56 202.71 378.01" stroke-width="18.09"/><path d="M261.98 362.86Q264.76 359.1 265.17 354.45" stroke-width="18.09"/><path d="M202.71 378.01Q204.82 373.84 204.46 369.19" stroke-width="17.58"/><path d="M265.17 354.45Q268.21 350.9 268.97 346.29" stroke-width="17.58"/><path d="M204.46 369.19Q206.22 364.86 205.48 360.24" stroke-width="17.05"/><path d="M268.97 346.29Q272.21 342.91 273.22 338.35" stroke-width="17.05"/><path d="M205.48 360.24Q206.99 355.82 205.98 351.26" stroke-width="16.51"/><path d="M205.98 351.26Q207.38 346.8 206.26 342.26" stroke-width="15.95"/><path d="M206.26 342.26Q207.28 337.7 205.78 333.28" stroke-width="15.37"/><path d="M205.78 333.28Q206.46 328.65 204.64 324.35" stroke-width="14.77"/><path d="M204.64 324.35Q205.64 319.78 204.13 315.36" stroke-width="14.14"/><path d="M273.22 338.35Q276.38 334.9 277.28 330.32" stroke-width="14.14"/><path d="M204.13 315.36Q205.29 310.83 203.93 306.36" stroke-width="12.79"/><path d="M203.93 306.36Q204.58 301.74 202.72 297.45" stroke-width="11.28"/><path d="M202.72 297.45Q203.99 292.95 202.74 288.45" stroke-width="9.53"/><path d="M277.28 330.32Q280.42 326.86 281.3 322.27" stroke-width="9.53"/><path d="M277.28 330.32Q280.53 333.68 285.05 334.86" stroke-width="9.53"/><path d="M273.22 338.35Q270.07 334.9 265.59 333.58" stroke-width="8.53"/><path d="M281.3 322.27Q284.9 319.29 286.43 314.87" stroke-width="8.53"/><path d="M285.05 334.86Q289.41 336.55 294.01 335.73" stroke-width="8.53"/><path d="M202.74 288.45Q204.26 284.03 203.27 279.46" stroke-width="7.38"/><path d="M265.59 333.58Q265.73 328.91 263.43 324.85" stroke-width="7.38"/><path d="M286.43 314.87Q291.09 314.5 294.88 311.76" stroke-width="7.38"/><path d="M294.01 335.73Q298.59 336.65 302.98 335.06" stroke-width="7.38"/><path d="M203.27 279.46Q206.71 276.3 208.01 271.81" stroke-width="6.03"/><path d="M263.43 324.85Q265.34 320.59 264.77 315.95" stroke-width="6.03"/><path d="M294.88 311.76Q299.45 312.74 303.86 311.2" stroke-width="6.03"/><path d="M302.98 335.06Q307.24 336.99 311.88 336.44" stroke-width="6.03"/><path d="M204.13 315.36Q208.71 316.29 213.11 314.7" stroke-width="4.26"/><path d="M203.93 306.36Q199.39 305.26 194.94 306.67" stroke-width="4.26"/><path d="M202.72 297.45Q207.38 297.89 211.58 295.85" stroke-width="4.26"/><path d="M202.74 288.45Q198.24 287.18 193.74 288.44" stroke-width="4.26"/><path d="M208.01 271.81Q211.26 268.46 212.3 263.9" stroke-width="4.26"/><path d="M264.77 315.95Q268.52 313.16 270.27 308.83" stroke-width="4.26"/><path d="M303.86 311.2Q307.58 314.03 312.23 314.51" stroke-width="4.26"/><path d="M311.88 336.44Q316.46 335.52 319.9 332.36" stroke-width="4.26"/></g><g class="kd-foliage"><g class="kd-pad"><circle cx="245.79" cy="398.6" r="16.04" fill="var(--kd-foliage1)"/><circle cx="264.36" cy="380.64" r="14.57" fill="var(--kd-foliage2)"/><circle cx="262.63" cy="395.4" r="12.66" fill="var(--kd-foliage3)"/><circle cx="253.08" cy="395.38" r="16.22" fill="var(--kd-foliage1)"/><circle cx="251.19" cy="382.28" r="13.99" fill="var(--kd-foliage2)"/></g><g class="kd-pad"><circle cx="215.87" cy="384.63" r="15.15" fill="var(--kd-foliage1)"/><circle cx="214.53" cy="392.24" r="18.19" fill="var(--kd-foliage2)"/><circle cx="200.8" cy="398.25" r="14.04" fill="var(--kd-foliage3)"/><circle cx="200.04" cy="391.82" r="18.58" fill="var(--kd-foliage1)"/><circle cx="186.07" cy="385.14" r="18.51" fill="var(--kd-foliage2)"/></g><g class="kd-pad"><circle cx="277.96" cy="362.98" r="16.66" fill="var(--kd-foliage1)"/><circle cx="254.9" cy="367.24" r="20.15" fill="var(--kd-foliage2)"/><circle cx="256.4" cy="365.41" r="17.09" fill="var(--kd-foliage3)"/><circle cx="258.25" cy="373.4" r="17.52" fill="var(--kd-foliage1)"/><circle cx="254.64" cy="358.55" r="14.96" fill="var(--kd-foliage2)"/></g><g class="kd-pad"><circle cx="204.64" cy="330.05" r="15.65" fill="var(--kd-foliage1)"/><circle cx="192.38" cy="336.82" r="16.6" fill="var(--kd-foliage2)"/><circle cx="204.38" cy="330.47" r="16.73" fill="var(--kd-foliage3)"/><circle cx="199.65" cy="341.81" r="13.58" fill="var(--kd-foliage1)"/><circle cx="221.99" cy="332.57" r="16.18" fill="var(--kd-foliage2)"/></g><g class="kd-pad"><circle cx="271.21" cy="318.49" r="21.08" fill="var(--kd-foliage1)"/><circle cx="268.27" cy="316.27" r="21.66" fill="var(--kd-foliage2)"/><circle cx="252.13" cy="313.89" r="15.25" fill="var(--kd-foliage3)"/><circle cx="285.19" cy="316.9" r="21.32" fill="var(--kd-foliage1)"/><circle cx="261.07" cy="310.01" r="16.67" fill="var(--kd-foliage2)"/></g><g class="kd-pad"><circle cx="308.77" cy="325.64" r="15.36" fill="var(--kd-foliage1)"/><circle cx="296.83" cy="322.2" r="23.42" fill="var(--kd-foliage2)"/><circle cx="300.4" cy="340.95" r="17.31" fill="var(--kd-foliage3)"/><circle cx="285.96" cy="348.34" r="23.01" fill="var(--kd-foliage1)"/><circle cx="284.47" cy="348.68" r="15.1" fill="var(--kd-foliage2)"/></g><g class="kd-pad"><circle cx="191.5" cy="312.49" r="25" fill="var(--kd-foliage1)"/><circle cx="178.61" cy="309.68" r="19.9" fill="var(--kd-foliage2)"/><circle cx="175.62" cy="313.37" r="18.07" fill="var(--kd-foliage3)"/><circle cx="202.49" cy="314.02" r="17.64" fill="var(--kd-foliage1)"/><circle cx="181.95" cy="301.54" r="22.07" fill="var(--kd-foliage2)"/></g><g class="kd-pad"><circle cx="324.19" cy="321.98" r="20.54" fill="var(--kd-foliage1)"/><circle cx="317.89" cy="308.4" r="15.25" fill="var(--kd-foliage2)"/><circle cx="302.3" cy="323.56" r="18.54" fill="var(--kd-foliage3)"/><circle cx="325.87" cy="306.61" r="16.79" fill="var(--kd-foliage1)"/><circle cx="307.75" cy="320.37" r="19.5" fill="var(--kd-foliage2)"/></g><g class="kd-pad"><circle cx="215.39" cy="279.51" r="17.47" fill="var(--kd-foliage1)"/><circle cx="197.71" cy="273.77" r="19.25" fill="var(--kd-foliage2)"/><circle cx="225.85" cy="270.15" r="16.68" fill="var(--kd-foliage3)"/><circle cx="200.56" cy="264.97" r="20" fill="var(--kd-foliage1)"/><circle cx="209.8" cy="282.7" r="14.81" fill="var(--kd-foliage2)"/></g></g></g><g class="kd-stats"><text x="500" y="110" fill="var(--kd-textPrimary)" font-family="ui-monospace, &apos;Cascadia Code&apos;, Consolas, &apos;SF Mono&apos;, monospace" font-size="34" font-weight="700">0</text><text x="500" y="129" fill="var(--kd-textSecondary)" font-family="system-ui, -apple-system, &apos;Segoe UI&apos;, sans-serif" font-size="13">commits</text><text x="500" y="168" fill="var(--kd-textPrimary)" font-family="ui-monospace, &apos;Cascadia Code&apos;, Consolas, &apos;SF Mono&apos;, monospace" font-size="20" font-weight="600">0 day streak</text><text x="500" y="198" fill="var(--kd-textPrimary)" font-family="ui-monospace, &apos;Cascadia Code&apos;, Consolas, &apos;SF Mono&apos;, monospace" font-size="20" font-weight="600">0 this week</text><circle cx="504" cy="384" r="4" fill="var(--kd-foliage2)"/><text x="516" y="388" fill="var(--kd-textSecondary)" font-family="system-ui, -apple-system, &apos;Segoe UI&apos;, sans-serif" font-size="12">foliage: commits over time</text></g></svg>